<svg width="20" height="20" viewBox="0 0 20 20" fill="none" xmlns="http://www.w3.org/2000/svg">
<path d="M9.99996 5.83335H6.24996C5.69743 5.83335 5.16752 5.61386 4.77682 5.22316C4.38612 4.83246 4.16663 4.30255 4.16663 3.75002C4.16663 3.19749 4.38612 2.66758 4.77682 2.27688C5.16752 1.88618 5.69743 1.66669 6.24996 1.66669C9.16663 1.66669 9.99996 5.83335 9.99996 5.83335ZM9.99996 5.83335H13.75C14.3025 5.83335 14.8324 5.61386 15.2231 5.22316C15.6138 4.83246 15.8333 4.30255 15.8333 3.75002C15.8333 3.19749 15.6138 2.66758 15.2231 2.27688C14.8324 1.88618 14.3025 1.66669 13.75 1.66669C10.8333 1.66669 9.99996 5.83335 9.99996 5.83335ZM9.99996 5.83335L9.99996 18.3334M1.66663 11.6667H18.3333M1.66663 8.50002L1.66663 15.6667C1.66663 16.6001 1.66663 17.0668 1.84828 17.4233C2.00807 17.7369 2.26304 17.9919 2.57664 18.1517C2.93316 18.3334 3.39987 18.3334 4.33329 18.3334L15.6666 18.3334C16.6 18.3334 17.0668 18.3334 17.4233 18.1517C17.7369 17.9919 17.9919 17.7369 18.1516 17.4233C18.3333 17.0668 18.3333 16.6001 18.3333 15.6667V8.50002C18.3333 7.5666 18.3333 7.09989 18.1516 6.74337C17.9919 6.42977 17.7369 6.1748 17.4233 6.01501C17.0668 5.83336 16.6 5.83336 15.6666 5.83336L4.33329 5.83335C3.39987 5.83335 2.93316 5.83335 2.57664 6.01501C2.26304 6.1748 2.00807 6.42977 1.84828 6.74337C1.66663 7.09989 1.66663 7.5666 1.66663 8.50002Z" stroke="#171F2D" stroke-width="2" stroke-linecap="round" stroke-linejoin="round"/>
</svg>
